<?xml version="1.0" encoding="utf-8"?>
<!-- Generator: Adobe Illustrator 27.5.0, SVG Export Plug-In . SVG Version: 6.00 Build 0)  -->
<svg version="1.1" id="Layer_1" xmlns="http://www.w3.org/2000/svg" xmlns:xlink="http://www.w3.org/1999/xlink" x="0px" y="0px"
	 viewBox="0 0 359.188 400" style="enable-background:new 0 0 359.188 400;" xml:space="preserve">
<g>
	<g>
		
			<ellipse transform="matrix(0.1344 -0.9909 0.9909 0.1344 94.1097 403.7835)" style="fill:#0A3542;" cx="278.168" cy="148.026" rx="15.661" ry="15.661"/>
		<path style="fill:#0A3542;" d="M259.816,218.928l18.763-61.022l-8.811-4.242l-39.648,64.612
			C230.121,218.275,237.626,240.628,259.816,218.928z"/>
	</g>
	<g>
		<g>
			<path style="fill:#507282;" d="M179.066,187.391v-0.009c-0.074,0.001-0.148,0.003-0.223,0.005
				c-0.074-0.001-0.148-0.003-0.223-0.005v0.009c-56.097,1.001-102.914,17.218-102.914,17.218v89.499
				c0,0,35.762,77.486,102.883,95.565v0.138c0.085-0.022,0.169-0.046,0.254-0.069c0.085,0.023,0.169,0.047,0.254,0.069v-0.138
				c67.121-18.079,102.883-95.565,102.883-95.565v-89.499C281.98,204.609,235.163,188.393,179.066,187.391z"/>
			<path style="fill:#0A3542;" d="M268.101,255.874h-44.745l48.559-22.118v-10.932l-62.796-29.745l-9.407,9.407l45.508,23.644
				l-66.284,31.237l-66.284-31.237l45.508-23.644l-9.407-9.407l-62.796,29.745v10.932l48.559,22.118H89.771H75.707v38.234
				c0,0,35.827,77.628,103.067,95.615v0.088c0.054-0.014,0.108-0.03,0.162-0.044c0.054,0.014,0.108,0.03,0.162,0.044v-0.088
				c67.24-17.987,103.067-95.615,103.067-95.615v-38.234H268.101z"/>
			<path style="fill:#B2B4B5;" d="M179.047,390c-15.41-4.072-30.442-11.644-44.679-22.506
				c-11.385-8.687-22.291-19.485-32.413-32.096c-17.232-21.468-26.337-41.013-26.427-41.208l0.356-0.165
				c0.09,0.195,9.179,19.703,26.383,41.135c10.102,12.584,20.984,23.358,32.343,32.025c14.194,10.829,29.178,18.377,44.537,22.436
				L179.047,390z"/>
			<path style="fill:#B2B4B5;" d="M248.121,313.551l-27.552-40.137h-41.429h-0.41h-41.429l-27.552,40.137
				c25.342,36.569,64.592,56.799,68.981,58.984v0.202c0,0,0.074-0.036,0.205-0.1c0.13,0.064,0.205,0.1,0.205,0.1v-0.202
				C183.529,370.35,222.78,350.12,248.121,313.551z"/>
			<path style="fill:#BCBEC0;" d="M179.066,187.391v-0.009c-0.074,0.001-0.148,0.003-0.223,0.005
				c-0.074-0.001-0.148-0.003-0.223-0.005v0.009c-0.215,0.004-0.429,0.01-0.644,0.014v202.097c0.204,0.056,0.408,0.115,0.613,0.17
				v0.138c0.085-0.022,0.169-0.046,0.254-0.069c0.085,0.023,0.169,0.047,0.254,0.069v-0.138
				c67.121-18.079,102.883-95.565,102.883-95.565v-89.499C281.98,204.609,235.163,188.393,179.066,187.391z"/>
		</g>
		<g>
			<g>
				<path style="fill:#0A3542;" d="M17.046,296.127c0,0-3.627-37.962,11.123-62.626c14.75-24.663,39.171-34.335,68.187-34.335
					c0,0-0.725,36.028,7.496,59.483c8.221,23.455,15.475,39.413-21.762,41.831S17.046,296.127,17.046,296.127z"/>
				<path style="opacity:0.4;fill:#0A3542;" d="M103.852,258.648c-8.221-23.455-7.496-59.483-7.496-59.483
					c-5.103,0-10.06,0.306-14.852,0.934c0.827,2.362,1.447,4.801,1.906,7.248c1.094,5.833,1.341,11.797,1.247,17.719
					c-0.088,5.522-0.504,11.043-1.312,16.508c-0.852,5.766-2.155,11.497-4.218,16.957c-1.981,5.245-4.69,10.281-8.468,14.457
					c-1.663,1.839-3.528,3.521-5.597,4.893c-1.692,1.122-3.508,2.048-5.377,2.837c-4.209,1.775-8.701,2.856-13.227,3.416
					c-4.684,0.58-9.46,0.588-14.131-0.121c-4.302-0.653-8.599-1.938-12.317-4.246c-1.126-0.699-2.18-1.496-3.145-2.382
					c-0.57,10.885,0.18,18.741,0.18,18.741s27.807,6.77,65.044,4.352S112.073,282.103,103.852,258.648z"/>
			</g>
			<g>
				<path style="fill:#B2B4B5;" d="M96.076,185.946c2.11-0.079,4.368,2.205,4.403,4.381c0.233,14.199,1.724,28.415,5.037,42.239
					c3.338,13.928,9.595,26.869,13.066,40.748c1.915,7.66,3.724,17.393-0.647,24.555c-3.261,5.343-9.31,7.62-15.242,8.418
					c-18.728,2.521-37.685,2.153-56.528,1.639c-8.163-0.222-16.361-0.217-24.512-0.646c-4.879-0.257-11.922-1.216-12.616-7.251
					c-0.026-0.229-0.043-0.462-0.052-0.692c-0.403-11.472,19.39-6.655,25.827-6.138c13.577,1.089,27.284,1.725,40.895,0.908
					c5.778-0.347,11.598-0.937,17.231-2.314c9.966-2.436,11.937-8.928,9.439-18.185c-3.603-13.352-8.951-25.793-10.447-39.696
					c-1.519-14.113-1.978-30.103,0.932-44.055c0.197-0.941,0.436-1.906,1.013-2.676C94.502,186.343,95.279,185.976,96.076,185.946z"
					/>
				<path style="opacity:0.7;fill:#B2B4B5;" d="M118.582,273.313c-1.626-6.502-3.864-12.798-6.126-19.086
					c1.711,4.86,3.328,9.752,4.582,14.766c1.926,7.704,3.746,17.493-0.651,24.697c-3.28,5.374-9.363,7.664-15.33,8.467
					c-18.836,2.536-37.902,2.165-56.853,1.649c-8.21-0.224-16.455-0.218-24.653-0.649c-3.407-0.179-7.861-0.701-10.5-3.033
					c0.757,5.949,7.748,6.902,12.602,7.157c8.151,0.429,16.35,0.423,24.512,0.646c18.843,0.513,37.799,0.882,56.528-1.639
					c5.932-0.799,11.981-3.075,15.242-8.418C122.306,290.706,120.497,280.973,118.582,273.313z"/>
			</g>
		</g>
		<g>
			<g>
				<path style="fill:#0A3542;" d="M342.142,296.127c0,0,3.627-37.962-11.123-62.626c-14.75-24.663-39.172-34.335-68.187-34.335
					c0,0,0.725,36.028-7.496,59.483c-8.221,23.455-15.475,39.413,21.762,41.831S342.142,296.127,342.142,296.127z"/>
				<path style="opacity:0.4;fill:#0A3542;" d="M255.336,258.648c8.221-23.455,7.496-59.483,7.496-59.483
					c5.103,0,10.06,0.306,14.852,0.934c-0.827,2.362-1.447,4.801-1.906,7.248c-1.095,5.833-1.342,11.797-1.247,17.719
					c0.087,5.522,0.504,11.043,1.311,16.508c0.852,5.766,2.155,11.497,4.218,16.957c1.982,5.245,4.69,10.281,8.468,14.457
					c1.663,1.839,3.528,3.521,5.597,4.893c1.692,1.122,3.508,2.048,5.377,2.837c4.209,1.775,8.701,2.856,13.227,3.416
					c4.685,0.58,9.46,0.588,14.131-0.121c4.302-0.653,8.599-1.938,12.317-4.246c1.126-0.699,2.18-1.496,3.145-2.382
					c0.57,10.885-0.18,18.741-0.18,18.741s-27.807,6.77-65.044,4.352C239.861,298.062,247.115,282.103,255.336,258.648z"/>
			</g>
			<g>
				<path style="fill:#B2B4B5;" d="M263.112,185.946c-2.11-0.079-4.368,2.205-4.404,4.381c-0.233,14.199-1.724,28.415-5.037,42.239
					c-3.338,13.928-9.595,26.869-13.066,40.748c-1.915,7.66-3.724,17.393,0.647,24.555c3.261,5.343,9.31,7.62,15.242,8.418
					c18.728,2.521,37.685,2.153,56.528,1.639c8.163-0.222,16.361-0.217,24.512-0.646c4.879-0.257,11.922-1.216,12.616-7.251
					c0.026-0.229,0.043-0.462,0.051-0.692c0.404-11.472-19.39-6.655-25.827-6.138c-13.578,1.089-27.284,1.725-40.895,0.908
					c-5.778-0.347-11.598-0.937-17.231-2.314c-9.966-2.436-11.937-8.928-9.439-18.185c3.603-13.352,8.951-25.793,10.447-39.696
					c1.519-14.113,1.978-30.103-0.932-44.055c-0.197-0.941-0.436-1.906-1.013-2.676
					C264.686,186.343,263.909,185.976,263.112,185.946z"/>
				<path style="opacity:0.7;fill:#B2B4B5;" d="M240.606,273.313c1.626-6.502,3.864-12.798,6.126-19.086
					c-1.711,4.86-3.328,9.752-4.582,14.766c-1.926,7.704-3.745,17.493,0.651,24.697c3.28,5.374,9.363,7.664,15.33,8.467
					c18.836,2.536,37.902,2.165,56.853,1.649c8.21-0.224,16.455-0.218,24.653-0.649c3.407-0.179,7.861-0.701,10.5-3.033
					c-0.757,5.949-7.748,6.902-12.602,7.157c-8.151,0.429-16.35,0.423-24.512,0.646c-18.843,0.513-37.799,0.882-56.528-1.639
					c-5.932-0.799-11.981-3.075-15.242-8.418C236.882,290.706,238.691,280.973,240.606,273.313z"/>
			</g>
		</g>
		<g>
			<path style="fill:#0A3542;" d="M244.722,193.494c-0.965-7.723-12.872-7.562-12.872-7.562s1.931-2.896,3.057-6.919
				s-15.929-11.263-15.929-11.263l-40.096,2.406l-40.096-2.406c0,0-17.055,7.24-15.929,11.263c1.126,4.023,3.057,6.919,3.057,6.919
				s-11.907-0.161-12.872,7.562c0,0,15.396,36.236,65.712,36.36v0.003c0.043,0,0.085-0.001,0.129-0.001
				c0.043,0,0.085,0.001,0.129,0.001v-0.003C229.326,229.73,244.722,193.494,244.722,193.494z"/>
			<path style="opacity:0.6;fill:#0A3542;" d="M222.678,169.445c-0.008,0.024-0.015,0.049-0.023,0.073
				c12.421,6.104,12.376,14.62-7.092,25.146c-17.167,9.282-30.833,12.835-36.681,14.042c-5.848-1.208-19.514-4.76-36.681-14.042
				c-19.468-10.526-19.512-19.043-7.092-25.146c-0.008-0.025-0.015-0.049-0.023-0.073c-4.947,2.387-13.015,6.761-12.229,9.568
				c1.126,4.023,3.057,6.919,3.057,6.919c6.093,7.868,20.905,25.391,52.84,28.85v0.029c0.043-0.005,0.086-0.01,0.129-0.014
				c0.043,0.005,0.085,0.01,0.129,0.014v-0.029c31.934-3.459,46.747-20.982,52.84-28.85c0,0,1.931-2.896,3.057-6.919
				C235.693,176.206,227.626,171.832,222.678,169.445z"/>
			<path style="opacity:0.6;fill:#0A3542;" d="M218.593,167.773l-39.711,2.383l-39.711-2.383c-1.472,0.558-2.829,1.139-4.062,1.745
				c3.58,11.136,13.936,26.815,43.645,31.766v0.044c0.043-0.007,0.085-0.015,0.129-0.022c0.043,0.007,0.085,0.015,0.129,0.022
				v-0.044c29.709-4.951,40.065-20.63,43.645-31.766C221.422,168.913,220.065,168.331,218.593,167.773z"/>
		</g>
	</g>
	<g>
		<g>
			<path style="fill:#0A3542;" d="M236.591,109.076c0,0,2.487-27.443-10.444-49.465c-11.145-18.98-37.401-42.709-44.441-48.902
				c-1.074-0.945-2.452-0.945-3.526,0c-7.04,6.193-33.297,29.922-44.441,48.902c-12.93,22.022-10.444,49.465-10.444,49.465
				S181.341,78.771,236.591,109.076z"/>
			<path style="opacity:0.3;fill:#0A3542;" d="M128.875,83.825c1.154,1.246,2.577,1.937,4.023,2.223
				c2.244,0.444,4.62,0.142,6.835-0.429c4.646-1.197,9.027-3.901,13.103-7.1c3.793-2.977,7.384-6.374,10.554-10.502
				c2.944-3.834,5.512-8.182,7.667-12.888c2.149-4.691,3.889-9.717,5.27-14.914c0.698-2.628,1.307-5.3,1.835-8.001
				c0.616-3.147,1.034-6.341,1.31-9.577c0.357-4.195,0.489-8.416,0.478-12.637c-0.615-0.002-1.231,0.234-1.77,0.708
				c-7.04,6.193-33.297,29.922-44.441,48.902c-3.489,5.942-5.854,12.278-7.45,18.364C126.668,80.242,127.495,82.336,128.875,83.825z
				"/>
			<path style="opacity:0.3;fill:#0A3542;" d="M226.147,59.611c-11.145-18.98-37.401-42.709-44.441-48.902
				c-0.434-0.382-0.918-0.607-1.411-0.68V95.63c17.381-0.326,37.008,2.866,56.296,13.446
				C236.591,109.076,239.078,81.633,226.147,59.611z"/>
		</g>
		<g>
			<path style="fill:#C9AC68;" d="M232.967,111.111l6.252-1.922l-0.397-20.441c-41.302,17.064-59.108-21.947-59.902-23.744
				c0-0.035,0-0.061,0-0.071c0,0-0.006,0.013-0.016,0.036c-0.01-0.022-0.016-0.036-0.016-0.036c0,0.01,0,0.036,0,0.071
				c-0.794,1.797-18.6,40.808-59.902,23.744l-0.397,20.441l6.252,1.922l-0.299,7.604l-2.58-0.595l6.747,50.209l50.178,28.361
				c0,0.009,0,0.018,0,0.018l0.016-0.009l0.016,0.009c0,0,0-0.009,0-0.018l50.178-28.361l6.747-50.209l-2.58,0.595L232.967,111.111z
				"/>
			<g>
				<path style="fill:#C9AC68;" d="M178.889,64.934c0,0,17.663,41.279,59.933,23.815l0.397,20.441l-6.252,1.922l0.299,7.604
					l2.58-0.595l-6.747,50.209l-50.209,28.379C178.889,196.708,178.889,63.743,178.889,64.934z"/>
			</g>
			<g>
				<g>
					<g>
						<g>
							<path style="fill:#414042;" d="M170.677,143.896c0,1.96-1.589,3.549-3.549,3.549c-1.96,0-3.549-1.589-3.549-3.549
								s1.589-3.549,3.549-3.549C169.089,140.347,170.677,141.936,170.677,143.896z"/>
							<path style="fill:#414042;" d="M170.677,155.333c0,1.96-1.589,3.549-3.549,3.549c-1.96,0-3.549-1.589-3.549-3.549
								s1.589-3.549,3.549-3.549C169.089,151.784,170.677,153.373,170.677,155.333z"/>
							<path style="fill:#414042;" d="M170.677,166.77c0,1.96-1.589,3.549-3.549,3.549c-1.96,0-3.549-1.589-3.549-3.549
								c0-1.96,1.589-3.549,3.549-3.549C169.089,163.221,170.677,164.81,170.677,166.77z"/>
						</g>
						<g>
							<circle style="fill:#414042;" cx="144.536" cy="138.072" r="3.549"/>
							<circle style="fill:#414042;" cx="144.536" cy="149.509" r="3.549"/>
							<circle style="fill:#414042;" cx="144.536" cy="160.946" r="3.549"/>
						</g>
						<g>
							<circle style="fill:#414042;" cx="156.323" cy="148.343" r="3.549"/>
							<circle style="fill:#414042;" cx="156.323" cy="159.78" r="3.549"/>
						</g>
					</g>
					<polygon style="fill:#414042;" points="166.505,119.375 124.842,111.111 124.543,118.715 166.505,131.311 					"/>
				</g>
				<g>
					<g>
						<g>
							<circle style="fill:#414042;" cx="190.68" cy="143.896" r="3.549"/>
							<circle style="fill:#414042;" cx="190.68" cy="155.333" r="3.549"/>
							<path style="fill:#414042;" d="M187.132,166.77c0,1.96,1.589,3.549,3.549,3.549s3.549-1.589,3.549-3.549
								c0-1.96-1.589-3.549-3.549-3.549S187.132,164.81,187.132,166.77z"/>
						</g>
						<g>
							<path style="fill:#414042;" d="M209.725,138.072c0,1.96,1.589,3.549,3.549,3.549c1.96,0,3.549-1.589,3.549-3.549
								c0-1.96-1.589-3.549-3.549-3.549C211.313,134.524,209.725,136.112,209.725,138.072z"/>
							<path style="fill:#414042;" d="M209.725,149.509c0,1.96,1.589,3.549,3.549,3.549c1.96,0,3.549-1.589,3.549-3.549
								c0-1.96-1.589-3.549-3.549-3.549C211.313,145.96,209.725,147.549,209.725,149.509z"/>
							<path style="fill:#414042;" d="M209.725,160.946c0,1.96,1.589,3.549,3.549,3.549c1.96,0,3.549-1.589,3.549-3.549
								s-1.589-3.549-3.549-3.549C211.313,157.397,209.725,158.986,209.725,160.946z"/>
						</g>
						<g>
							<circle style="fill:#414042;" cx="201.486" cy="148.343" r="3.549"/>
							<circle style="fill:#414042;" cx="201.486" cy="159.78" r="3.549"/>
						</g>
					</g>
					<polygon style="fill:#414042;" points="191.304,119.375 232.967,111.111 233.266,118.715 191.304,131.311 					"/>
				</g>
			</g>
		</g>
	</g>
</g>
</svg>
