<svg viewBox="0 0 32 32" fill="none" xmlns="http://www.w3.org/2000/svg" id="Princess-Flat-Medium-Light--Streamline-Fluent-Emoji" height="32" width="32">
  <desc>
    Princess Flat Medium Light Streamline Emoji: https://streamlinehq.com
  </desc>
  <path d="M23.1633 15.9251c0.2058 -0.4307 0.3273 -0.9176 0.3273 -1.4232 0 -0.6742 -0.2057 -1.3015 -0.5517 -1.8165 -0.346 -0.5244 -0.533 -1.1423 -0.5237 -1.7697v-0.0093c0 -1.81651 -1.4682 -3.29591 -3.2918 -3.29591 -0.1776 0 -0.346 -0.08427 -0.4488 -0.23409C18.0761 6.54307 17.1035 6 16 6s-2.0761 0.54307 -2.6746 1.3764c-0.1122 0.14045 -0.2805 0.22472 -0.4582 0.22472 -1.8142 0 -3.29176 1.47004 -3.29176 3.29588v0.0094c0 0.6273 -0.17768 1.2453 -0.52369 1.7696 -0.34601 0.5244 -0.55175 1.1517 -0.55175 1.8165 0 0.515 0.11222 0.9925 0.32731 1.4232 0.06546 0.1405 0.06546 0.309 0 0.4588 -0.20574 0.4214 -0.32731 0.8989 -0.32731 1.4045C8.5 19.5581 9.94015 21 11.717 21h8.566c1.7769 0 3.217 -1.4419 3.217 -3.221 0 -0.5056 -0.1122 -0.9831 -0.3273 -1.4045 -0.0748 -0.1311 -0.0748 -0.2996 -0.0094 -0.4494Z" fill="#fff9ba" stroke-width="1"></path>
  <path d="m24 30.0002 1 -3.75 -1 -3.75c-0.4677 -0.3916 -0.9694 -0.7072 -1.5 -1 0 0 -4.1312 -0.0002 -6.5 -0.0002 -2.4417 0 -6.64525 0.0002 -6.64525 0.0002 -0.47715 0.2704 -0.93006 0.6423 -1.35475 1l-1 3.75 1 3.75h16Z" fill="#633589" stroke-width="1"></path>
  <path d="M8 30H4.25c0.14189 -0.8917 0.35473 -1.7734 0.63851 -2.6453l0.03041 -0.0892C5.52703 25.4029 6.60135 23.7781 8 22.5V30Z" fill="#8b62bf" stroke-width="1"></path>
  <path d="M27.1233 27.3257c0.283 0.8782 0.4852 1.7664 0.6267 2.6743H24v-7.5c1.4252 1.2829 2.5168 2.9309 3.1233 4.8257Z" fill="#8b62bf" stroke-width="1"></path>
  <path d="M24 22.5v6.12c1.96 1.31 4.58 -0.09 4.58 -2.44 0 -2.03 -1.65 -3.68 -3.68 -3.68H24Z" fill="#774aa6" stroke-width="1"></path>
  <path d="M8.00004 22.5v6.12c-1.96 1.3 -4.58 -0.1 -4.58 -2.45 0 -2.03 1.65 -3.68 3.68 -3.67h0.9Z" fill="#774aa6" stroke-width="1"></path>
  <path d="m22.5 21.4999 -4.5 6c-0.97 1.16 -3.04 1.16 -4 0l-4.62439 -6.0117c0.31513 -0.1775 0.64079 -0.3369 0.97579 -0.4794 0 0 3.6166 -0.0088 5.6486 -0.0088 2.0056 0 5.5 0.0054 5.5 0.0054 0.341 0.1468 0.6743 0.3113 1 0.4945Z" fill="#a17fd5" stroke-width="1"></path>
  <path d="M16 20c2.5 0 4.0155 0.4027 5.5 1l-4.2782 5.8715c-0.2608 0.3024 -0.7093 0.4984 -1.2255 0.4984 -0.5173 0 -0.9614 -0.1967 -1.2162 -0.4961l-4.4385 -5.8758C11.8373 20.3977 13.5 20 16 20Z" fill="#e4b29a" stroke-width="1"></path>
  <path d="M12.5 14.75c0 0.8284 -0.6716 1.5 -1.5 1.5s-1.5 -0.6716 -1.5 -1.5 0.6716 -1.5 1.5 -1.5 1.5 0.6716 1.5 1.5Z" fill="#e4b29a" stroke-width="1"></path>
  <path d="M22.5 14.75c0 0.8284 -0.6716 1.5 -1.5 1.5s-1.5 -0.6716 -1.5 -1.5 0.6716 -1.5 1.5 -1.5 1.5 0.6716 1.5 1.5Z" fill="#e4b29a" stroke-width="1"></path>
  <path d="M13.5 20.085c0 0.3263 -0.1563 0.6161 -0.3981 0.7986 0.4899 0.0646 0.8681 0.4838 0.8681 0.9914 0 0.1397 -0.0287 0.2727 -0.0804 0.3935 0.1226 -0.0537 0.258 -0.0834 0.4004 -0.0834 0.5067 0 0.9253 0.3767 0.9911 0.8653 0.183 -0.2345 0.4683 -0.3854 0.7888 -0.3854 0.3257 0 0.615 0.1557 0.7976 0.3967 0.0608 -0.4941 0.482 -0.8766 0.9925 -0.8766 0.1377 0 0.2688 0.0278 0.3882 0.0781 -0.0503 -0.1194 -0.0782 -0.2505 -0.0782 -0.3882 0 -0.5105 0.3826 -0.9317 0.8767 -0.9925 -0.241 -0.1826 -0.3967 -0.4719 -0.3967 -0.7975 0 -0.5523 0.4477 -1 1 -1s1 0.4477 1 1c0 0.5105 -0.3825 0.9317 -0.8766 0.9924 0.241 0.1826 0.3966 0.4719 0.3966 0.7976 0 0.5523 -0.4477 1 -1 1 -0.1376 0 -0.2688 -0.0278 -0.3882 -0.0781 0.0504 0.1193 0.0782 0.2505 0.0782 0.3882 0 0.5522 -0.4477 1 -1 1 -0.3257 0 -0.615 -0.1557 -0.7976 -0.3967 -0.0608 0.4941 -0.4819 0.8766 -0.9925 0.8766 -0.5066 0 -0.9252 -0.3767 -0.991 -0.8653 -0.183 0.2345 -0.4683 0.3854 -0.7889 0.3854 -0.5522 0 -1 -0.4478 -1 -1 0 -0.1397 0.0287 -0.2727 0.0804 -0.3935 -0.1226 0.0536 -0.258 0.0834 -0.4004 0.0834 -0.5523 0 -1 -0.4477 -1 -1 0 -0.3263 0.1563 -0.6161 0.3981 -0.7987 -0.4899 -0.0645 -0.8681 -0.4838 -0.8681 -0.9913 0 -0.5523 0.4477 -1 1 -1s1 0.4477 1 1Z" fill="#f3eef8" stroke-width="1"></path>
  <path d="M11 12.5019c0.0431 -0.903 0.5613 -1.2564 0.788 -1.3671 0.0186 -0.0094 0.0348 -0.0165 0.0511 -0.0236 0.0163 -0.0071 0.0326 -0.0142 0.0511 -0.0237 0.5207 -0.2365 0.9485 -0.6716 1.1716 -1.22974l0.0744 -0.1892c0.0744 -0.19865 0.3347 -0.22703 0.4556 -0.05675 0.7067 1.04999 1.8782 1.67439 3.1242 1.67439h3.152c0.1767 0 1.0972 0.0946 1.1158 1.4378 0.0053 0.0011 0.0107 0.0021 0.0162 0.0033l-0.1278 3.0429C20.7513 18.5986 18.6034 20.5 16 20.5c-2.6128 0 -4.7514 -1.9014 -4.8722 -4.7298L11 12.5019Z" fill="#eebfaa" stroke-width="1"></path>
  <path d="M13.46 13c0.6 0 1.09 0.41 1.4 0.88 -0.329 0.1036 -0.6478 0.1951 -0.9656 0.2863 -0.3875 0.1111 -0.7734 0.2219 -1.1744 0.3537l-0.51 -0.46c-0.21 -0.19 -0.19 -0.52 0.04 -0.69 0.33 -0.24 0.79 -0.37 1.21 -0.37Z" fill="#000000" stroke-width="1"></path>
  <path d="M18.6646 13c-0.6 0 -1.09 0.41 -1.4 0.88 0.329 0.1036 0.6478 0.1951 0.9657 0.2863 0.3874 0.1111 0.7733 0.2219 1.1743 0.3537l0.51 -0.46c0.21 -0.19 0.19 -0.52 -0.04 -0.69 -0.33 -0.24 -0.79 -0.37 -1.21 -0.37Z" fill="#000000" stroke-width="1"></path>
  <path d="M12.21 14.2399c0.16 -0.65 0.74 -1.13 1.44 -1.13 0.72 0 1.32 0.51 1.47 1.2 0.03 0.15 -0.09 0.29 -0.24 0.29H12.5c-0.19 0 -0.34 -0.18 -0.29 -0.36Z" fill="#ffffff" stroke-width="1"></path>
  <path d="M19.9146 14.2399c-0.16 -0.65 -0.74 -1.13 -1.44 -1.13 -0.72 0 -1.33 0.51 -1.47 1.2 -0.03 0.15 0.09 0.29 0.24 0.29h2.38c0.19 0 0.34 -0.18 0.29 -0.36Z" fill="#ffffff" stroke-width="1"></path>
  <path d="M12.9199 14.3499c0 -0.52 0.42 -0.95 0.95 -0.95 0.52 0 0.95 0.43 0.95 0.95 0 0.09 -0.01 0.17 -0.03 0.25h-1.84c-0.02 -0.08 -0.03 -0.16 -0.03 -0.25Z" fill="#7d4533" stroke-width="1"></path>
  <path d="M19.2046 14.3499c0 -0.52 -0.42 -0.95 -0.95 -0.95 -0.52 0 -0.95 0.43 -0.95 0.95 0 0.09 0.01 0.17 0.03 0.25h1.84c0.02 -0.08 0.03 -0.16 0.03 -0.25Z" fill="#7d4533" stroke-width="1"></path>
  <path d="M13.87 13.7998c0.3 0 0.54 0.24 0.54 0.54 0 0.09 -0.02 0.18 -0.06 0.25h-0.96c-0.04 -0.07 -0.06 -0.16 -0.06 -0.25 0 -0.3 0.24 -0.54 0.54 -0.54Z" fill="#000000" stroke-width="1"></path>
  <path d="M18.2546 13.7998c-0.3 0 -0.54 0.24 -0.54 0.54 0 0.09 0.02 0.18 0.06 0.25h0.96c0.04 -0.07 0.06 -0.16 0.06 -0.25 0 -0.3 -0.24 -0.54 -0.54 -0.54Z" fill="#000000" stroke-width="1"></path>
  <path d="M13.71 13.9698c0 0.0939 -0.0761 0.17 -0.17 0.17 -0.0939 0 -0.17 -0.0761 -0.17 -0.17 0 -0.0939 0.0761 -0.17 0.17 -0.17 0.0939 0 0.17 0.0761 0.17 0.17Z" fill="#ffffff" stroke-width="1"></path>
  <path d="M18.48 13.9698c0 0.0939 -0.0761 0.17 -0.17 0.17 -0.0939 0 -0.17 -0.0761 -0.17 -0.17 0 -0.0939 0.0761 -0.17 0.17 -0.17 0.0939 0 0.17 0.0761 0.17 0.17Z" fill="#ffffff" stroke-width="1"></path>
  <path d="M16 17.6495c-0.5581 0 -1.0663 -0.1365 -1.5048 -0.3779 -0.1495 -0.084 -0.3089 0.0945 -0.2192 0.2415 0.3687 0.5984 0.9965 0.9869 1.724 0.9869 0.7275 0 1.3553 -0.3885 1.724 -0.9869 0.0897 -0.147 -0.0697 -0.3255 -0.2192 -0.2415 -0.4285 0.231 -0.9467 0.3779 -1.5048 0.3779Z" fill="#990838" stroke-width="1"></path>
  <path d="m15.6424 14.2845 -0.4947 1.7468c-0.1007 0.3594 0.1466 0.7187 0.4856 0.7187h0.7329c0.3481 0 0.5863 -0.3593 0.4855 -0.7187l-0.4947 -1.7468c-0.1008 -0.3793 -0.6046 -0.3793 -0.7146 0Z" fill="#d19479" stroke-width="1"></path>
  <path d="M10.5 7.5c0 0.27614 -0.2239 0.5 -0.5 0.5 -0.27614 0 -0.5 -0.22386 -0.5 -0.5s0.22386 -0.5 0.5 -0.5c0.2761 0 0.5 0.22386 0.5 0.5Z" fill="#37c9cd" stroke-width="1"></path>
  <path d="M22.5 7.5c0 0.27614 -0.2239 0.5 -0.5 0.5s-0.5 -0.22386 -0.5 -0.5 0.2239 -0.5 0.5 -0.5 0.5 0.22386 0.5 0.5Z" fill="#37c9cd" stroke-width="1"></path>
  <path d="m19.4242 5.10447 -1.9425 2.17 3.5183 0.75 -0.892 -2.78c0.2874 -0.08 0.5055 -0.33 0.5352 -0.65 0.0397 -0.41 -0.2676 -0.78 -0.6739 -0.82 -0.4064 -0.04 -0.7731 0.27 -0.8127 0.68 -0.0198 0.26 0.0892 0.5 0.2676 0.65Z" fill="#f9c23c" stroke-width="1"></path>
  <path d="m12.5857 5.10457 1.9326 2.17 -3.5183 0.75 0.892 -2.78c-0.2874 -0.08 -0.5055 -0.33 -0.5352 -0.65 -0.0297 -0.42 0.2676 -0.78 0.6739 -0.82 0.4163 -0.04 0.783 0.26 0.8226 0.68 0.0198 0.25 -0.0892 0.49 -0.2676 0.65Z" fill="#f9c23c" stroke-width="1"></path>
  <path d="M22.6908 4.58678c-0.3747 0.02001 -0.6803 0.32026 -0.7099 0.69057 -0.0099 0.1301 0.0098 0.2502 0.0493 0.3703l-2.5339 0.79065c-0.1282 0.04004 -0.2564 0 -0.355 -0.09007l-2.8297 -2.87237c0.286 -0.14011 0.4634 -0.44036 0.424 -0.79065 -0.0394 -0.36029 -0.3155 -0.64052 -0.6606 -0.68056 -0.4535 -0.05004 -0.8479 0.31026 -0.8479 0.76063 0 0.31025 0.1775 0.57047 0.4338 0.69057l-2.8198 2.88237c-0.0986 0.10008 -0.2268 0.13011 -0.355 0.09007l-2.53389 -0.78064c0.03944 -0.11009 0.06899 -0.2402 0.04929 -0.3703 -0.02957 -0.37031 -0.34508 -0.67056 -0.70988 -0.69057 -0.45354 -0.02002 -0.8282 0.3603 -0.78877 0.83068 0.02958 0.35029 0.29579 0.64053 0.63102 0.70058 0.08873 0.02002 0.18733 0.01001 0.26621 0l0.90712 2.15177c0.0591 0.14012 0.1971 0.23019 0.345 0.23019H21.34c0.1479 0 0.2859 -0.09007 0.3451 -0.23019l0.9071 -2.15177c0.0887 0.02002 0.1774 0.02002 0.276 0 0.3451 -0.06005 0.6015 -0.3603 0.6311 -0.71059 0.0197 -0.47038 -0.355 -0.84069 -0.8085 -0.82067Z" fill="#ffb02e" stroke-width="1"></path>
  <path d="M16 8c0.6904 0 1.25 -0.55964 1.25 -1.25S16.6904 5.5 16 5.5s-1.25 0.55964 -1.25 1.25S15.3096 8 16 8Z" fill="#f92f60" stroke-width="1"></path>
  <path d="M13 7.5c0 0.27614 -0.2239 0.5 -0.5 0.5s-0.5 -0.22386 -0.5 -0.5 0.2239 -0.5 0.5 -0.5 0.5 0.22386 0.5 0.5Z" fill="#00d1ed" stroke-width="1"></path>
  <path d="M20 7.5c0 0.27614 -0.2239 0.5 -0.5 0.5s-0.5 -0.22386 -0.5 -0.5 0.2239 -0.5 0.5 -0.5 0.5 0.22386 0.5 0.5Z" fill="#00d1ed" stroke-width="1"></path>
  <path d="M19.3996 12.648c0.0379 0.0285 0.0852 0.0379 0.1326 0.0379 0.0947 0 0.1799 -0.0473 0.2272 -0.142 0.0758 -0.1326 0.0379 -0.2936 -0.0947 -0.3693 -0.0284 -0.019 -0.8996 -0.5019 -1.8939 -0.322 -0.1515 0.0284 -0.2462 0.1704 -0.2178 0.3125 0.0284 0.1515 0.1705 0.2462 0.3125 0.2178 0.7363 -0.13 1.4013 0.1997 1.5166 0.2569 0.0107 0.0053 0.0175 0.0082 0.0175 0.0082Z" fill="#a56953" stroke-width="1"></path>
  <path d="M12.2309 12.5532c0.0569 0.0852 0.1421 0.1325 0.2368 0.1325 0.0473 0 0.0947 -0.0094 0.1326 -0.0284 0.0094 -0.0094 0.7291 -0.4072 1.5341 -0.2651 0.1515 0.0284 0.284 -0.0758 0.303 -0.2178 0.0284 -0.1421 -0.0758 -0.2841 -0.2178 -0.3125 -0.9533 -0.1816 -1.7847 0.2635 -1.8851 0.3173 -0.0043 0.0023 -0.0089 0.0047 -0.0089 0.0047 -0.1231 0.0757 -0.1704 0.2367 -0.0947 0.3693Z" fill="#a56953" stroke-width="1"></path>
</svg>